G04 MADE WITH FRITZING*
G04 WWW.FRITZING.ORG*
G04 DOUBLE SIDED*
G04 HOLES PLATED*
G04 CONTOUR ON CENTER OF CONTOUR VECTOR*
%ASAXBY*%
%FSLAX23Y23*%
%MOIN*%
%OFA0B0*%
%SFA1.0B1.0*%
%ADD10C,0.075000*%
%ADD11C,0.075433*%
%ADD12C,0.039370*%
%ADD13R,0.047244X0.043307*%
%ADD14R,0.043307X0.047244*%
%ADD15C,0.048000*%
%ADD16C,0.024000*%
%LNCOPPER0*%
G90*
G70*
G54D10*
X175Y269D03*
G54D11*
X392Y72D03*
X641Y72D03*
X641Y172D03*
X68Y72D03*
X68Y172D03*
X68Y271D03*
X641Y271D03*
X566Y421D03*
X143Y421D03*
G54D12*
X392Y246D03*
X392Y172D03*
X317Y172D03*
G54D13*
X317Y421D03*
X384Y421D03*
G54D14*
X516Y72D03*
X516Y139D03*
X516Y296D03*
X516Y229D03*
G54D15*
X402Y421D02*
X526Y421D01*
D02*
X182Y421D02*
X299Y421D01*
G54D16*
D02*
X392Y272D02*
X392Y265D01*
D02*
X417Y296D02*
X392Y272D01*
D02*
X500Y296D02*
X417Y296D01*
D02*
X516Y221D02*
X516Y229D01*
D02*
X566Y221D02*
X516Y221D01*
D02*
X617Y188D02*
X566Y221D01*
D02*
X417Y147D02*
X405Y158D01*
D02*
X492Y147D02*
X417Y147D01*
D02*
X500Y144D02*
X492Y147D01*
D02*
X567Y72D02*
X532Y72D01*
D02*
X612Y72D02*
X567Y72D01*
G54D15*
D02*
X317Y405D02*
X317Y202D01*
G36*
X40Y452D02*
X40Y374D01*
X130Y374D01*
X130Y376D01*
X124Y376D01*
X124Y378D01*
X120Y378D01*
X120Y380D01*
X116Y380D01*
X116Y382D01*
X114Y382D01*
X114Y384D01*
X112Y384D01*
X112Y386D01*
X108Y386D01*
X108Y390D01*
X106Y390D01*
X106Y392D01*
X104Y392D01*
X104Y394D01*
X102Y394D01*
X102Y398D01*
X100Y398D01*
X100Y402D01*
X98Y402D01*
X98Y408D01*
X96Y408D01*
X96Y418D01*
X94Y418D01*
X94Y424D01*
X96Y424D01*
X96Y452D01*
X40Y452D01*
G37*
D02*
G36*
X188Y452D02*
X188Y430D01*
X190Y430D01*
X190Y410D01*
X188Y410D01*
X188Y404D01*
X186Y404D01*
X186Y400D01*
X184Y400D01*
X184Y396D01*
X182Y396D01*
X182Y392D01*
X180Y392D01*
X180Y390D01*
X178Y390D01*
X178Y388D01*
X176Y388D01*
X176Y386D01*
X174Y386D01*
X174Y384D01*
X172Y384D01*
X172Y382D01*
X168Y382D01*
X168Y380D01*
X166Y380D01*
X166Y378D01*
X162Y378D01*
X162Y376D01*
X156Y376D01*
X156Y374D01*
X554Y374D01*
X554Y376D01*
X548Y376D01*
X548Y378D01*
X544Y378D01*
X544Y380D01*
X540Y380D01*
X540Y382D01*
X538Y382D01*
X538Y384D01*
X534Y384D01*
X534Y386D01*
X400Y386D01*
X400Y388D01*
X390Y388D01*
X390Y390D01*
X284Y390D01*
X284Y452D01*
X188Y452D01*
G37*
D02*
G36*
X612Y452D02*
X612Y430D01*
X614Y430D01*
X614Y412D01*
X612Y412D01*
X612Y406D01*
X610Y406D01*
X610Y400D01*
X608Y400D01*
X608Y396D01*
X606Y396D01*
X606Y394D01*
X604Y394D01*
X604Y390D01*
X602Y390D01*
X602Y388D01*
X600Y388D01*
X600Y386D01*
X598Y386D01*
X598Y384D01*
X594Y384D01*
X594Y382D01*
X592Y382D01*
X592Y380D01*
X588Y380D01*
X588Y378D01*
X586Y378D01*
X586Y376D01*
X578Y376D01*
X578Y374D01*
X668Y374D01*
X668Y452D01*
X612Y452D01*
G37*
D02*
G36*
X40Y374D02*
X40Y372D01*
X668Y372D01*
X668Y374D01*
X40Y374D01*
G37*
D02*
G36*
X40Y374D02*
X40Y372D01*
X668Y372D01*
X668Y374D01*
X40Y374D01*
G37*
D02*
G36*
X40Y374D02*
X40Y372D01*
X668Y372D01*
X668Y374D01*
X40Y374D01*
G37*
D02*
G36*
X40Y372D02*
X40Y330D01*
X548Y330D01*
X548Y244D01*
X568Y244D01*
X568Y242D01*
X576Y242D01*
X576Y240D01*
X580Y240D01*
X580Y238D01*
X582Y238D01*
X582Y236D01*
X602Y236D01*
X602Y246D01*
X600Y246D01*
X600Y250D01*
X598Y250D01*
X598Y252D01*
X596Y252D01*
X596Y260D01*
X594Y260D01*
X594Y284D01*
X596Y284D01*
X596Y290D01*
X598Y290D01*
X598Y294D01*
X600Y294D01*
X600Y298D01*
X602Y298D01*
X602Y300D01*
X604Y300D01*
X604Y302D01*
X606Y302D01*
X606Y304D01*
X608Y304D01*
X608Y306D01*
X610Y306D01*
X610Y308D01*
X612Y308D01*
X612Y310D01*
X614Y310D01*
X614Y312D01*
X618Y312D01*
X618Y314D01*
X622Y314D01*
X622Y316D01*
X628Y316D01*
X628Y318D01*
X668Y318D01*
X668Y372D01*
X40Y372D01*
G37*
D02*
G36*
X40Y330D02*
X40Y318D01*
X80Y318D01*
X80Y316D01*
X86Y316D01*
X86Y314D01*
X90Y314D01*
X90Y312D01*
X94Y312D01*
X94Y310D01*
X96Y310D01*
X96Y308D01*
X98Y308D01*
X98Y306D01*
X102Y306D01*
X102Y304D01*
X104Y304D01*
X104Y300D01*
X106Y300D01*
X106Y298D01*
X108Y298D01*
X108Y294D01*
X110Y294D01*
X110Y292D01*
X112Y292D01*
X112Y286D01*
X114Y286D01*
X114Y278D01*
X116Y278D01*
X116Y266D01*
X114Y266D01*
X114Y256D01*
X112Y256D01*
X112Y252D01*
X110Y252D01*
X110Y248D01*
X108Y248D01*
X108Y244D01*
X106Y244D01*
X106Y242D01*
X104Y242D01*
X104Y240D01*
X102Y240D01*
X102Y238D01*
X100Y238D01*
X100Y236D01*
X98Y236D01*
X98Y234D01*
X96Y234D01*
X96Y232D01*
X94Y232D01*
X94Y210D01*
X96Y210D01*
X96Y208D01*
X100Y208D01*
X100Y206D01*
X102Y206D01*
X102Y204D01*
X104Y204D01*
X104Y202D01*
X318Y202D01*
X318Y200D01*
X328Y200D01*
X328Y198D01*
X332Y198D01*
X332Y196D01*
X334Y196D01*
X334Y194D01*
X338Y194D01*
X338Y192D01*
X340Y192D01*
X340Y188D01*
X342Y188D01*
X342Y186D01*
X344Y186D01*
X344Y180D01*
X364Y180D01*
X364Y184D01*
X366Y184D01*
X366Y188D01*
X368Y188D01*
X368Y190D01*
X370Y190D01*
X370Y192D01*
X372Y192D01*
X372Y194D01*
X374Y194D01*
X374Y196D01*
X376Y196D01*
X376Y198D01*
X380Y198D01*
X380Y220D01*
X376Y220D01*
X376Y222D01*
X374Y222D01*
X374Y224D01*
X372Y224D01*
X372Y226D01*
X370Y226D01*
X370Y228D01*
X368Y228D01*
X368Y230D01*
X366Y230D01*
X366Y234D01*
X364Y234D01*
X364Y240D01*
X362Y240D01*
X362Y254D01*
X364Y254D01*
X364Y258D01*
X366Y258D01*
X366Y262D01*
X368Y262D01*
X368Y266D01*
X370Y266D01*
X370Y278D01*
X372Y278D01*
X372Y282D01*
X374Y282D01*
X374Y286D01*
X376Y286D01*
X376Y288D01*
X378Y288D01*
X378Y290D01*
X380Y290D01*
X380Y292D01*
X382Y292D01*
X382Y294D01*
X384Y294D01*
X384Y296D01*
X386Y296D01*
X386Y298D01*
X388Y298D01*
X388Y300D01*
X390Y300D01*
X390Y302D01*
X392Y302D01*
X392Y304D01*
X394Y304D01*
X394Y306D01*
X396Y306D01*
X396Y308D01*
X398Y308D01*
X398Y310D01*
X400Y310D01*
X400Y312D01*
X402Y312D01*
X402Y314D01*
X406Y314D01*
X406Y316D01*
X410Y316D01*
X410Y318D01*
X484Y318D01*
X484Y330D01*
X40Y330D01*
G37*
D02*
G36*
X104Y202D02*
X104Y200D01*
X106Y200D01*
X106Y198D01*
X108Y198D01*
X108Y196D01*
X110Y196D01*
X110Y192D01*
X112Y192D01*
X112Y186D01*
X114Y186D01*
X114Y178D01*
X116Y178D01*
X116Y166D01*
X114Y166D01*
X114Y158D01*
X112Y158D01*
X112Y152D01*
X110Y152D01*
X110Y148D01*
X108Y148D01*
X108Y144D01*
X106Y144D01*
X106Y142D01*
X310Y142D01*
X310Y144D01*
X304Y144D01*
X304Y146D01*
X300Y146D01*
X300Y148D01*
X298Y148D01*
X298Y150D01*
X296Y150D01*
X296Y152D01*
X294Y152D01*
X294Y154D01*
X292Y154D01*
X292Y158D01*
X290Y158D01*
X290Y162D01*
X288Y162D01*
X288Y182D01*
X290Y182D01*
X290Y186D01*
X292Y186D01*
X292Y188D01*
X294Y188D01*
X294Y192D01*
X296Y192D01*
X296Y194D01*
X300Y194D01*
X300Y196D01*
X302Y196D01*
X302Y198D01*
X306Y198D01*
X306Y200D01*
X314Y200D01*
X314Y202D01*
X104Y202D01*
G37*
D02*
G36*
X344Y162D02*
X344Y158D01*
X342Y158D01*
X342Y154D01*
X340Y154D01*
X340Y152D01*
X338Y152D01*
X338Y150D01*
X336Y150D01*
X336Y148D01*
X334Y148D01*
X334Y146D01*
X330Y146D01*
X330Y144D01*
X324Y144D01*
X324Y142D01*
X384Y142D01*
X384Y144D01*
X378Y144D01*
X378Y146D01*
X376Y146D01*
X376Y148D01*
X372Y148D01*
X372Y150D01*
X370Y150D01*
X370Y152D01*
X368Y152D01*
X368Y156D01*
X366Y156D01*
X366Y158D01*
X364Y158D01*
X364Y162D01*
X344Y162D01*
G37*
D02*
G36*
X104Y142D02*
X104Y140D01*
X392Y140D01*
X392Y142D01*
X104Y142D01*
G37*
D02*
G36*
X104Y142D02*
X104Y140D01*
X392Y140D01*
X392Y142D01*
X104Y142D01*
G37*
D02*
G36*
X102Y140D02*
X102Y138D01*
X100Y138D01*
X100Y136D01*
X98Y136D01*
X98Y134D01*
X96Y134D01*
X96Y132D01*
X92Y132D01*
X92Y112D01*
X94Y112D01*
X94Y110D01*
X98Y110D01*
X98Y108D01*
X100Y108D01*
X100Y106D01*
X102Y106D01*
X102Y104D01*
X104Y104D01*
X104Y102D01*
X106Y102D01*
X106Y98D01*
X108Y98D01*
X108Y96D01*
X110Y96D01*
X110Y92D01*
X112Y92D01*
X112Y86D01*
X114Y86D01*
X114Y78D01*
X116Y78D01*
X116Y66D01*
X114Y66D01*
X114Y40D01*
X346Y40D01*
X346Y62D01*
X344Y62D01*
X344Y80D01*
X346Y80D01*
X346Y88D01*
X348Y88D01*
X348Y92D01*
X350Y92D01*
X350Y96D01*
X352Y96D01*
X352Y100D01*
X354Y100D01*
X354Y102D01*
X356Y102D01*
X356Y104D01*
X358Y104D01*
X358Y106D01*
X360Y106D01*
X360Y108D01*
X362Y108D01*
X362Y110D01*
X364Y110D01*
X364Y112D01*
X368Y112D01*
X368Y114D01*
X372Y114D01*
X372Y116D01*
X378Y116D01*
X378Y118D01*
X386Y118D01*
X386Y120D01*
X394Y120D01*
X394Y140D01*
X102Y140D01*
G37*
D02*
G36*
X424Y274D02*
X424Y272D01*
X422Y272D01*
X422Y270D01*
X420Y270D01*
X420Y250D01*
X422Y250D01*
X422Y242D01*
X420Y242D01*
X420Y234D01*
X418Y234D01*
X418Y230D01*
X416Y230D01*
X416Y228D01*
X414Y228D01*
X414Y226D01*
X412Y226D01*
X412Y224D01*
X410Y224D01*
X410Y222D01*
X406Y222D01*
X406Y220D01*
X404Y220D01*
X404Y218D01*
X402Y218D01*
X402Y198D01*
X406Y198D01*
X406Y196D01*
X410Y196D01*
X410Y194D01*
X412Y194D01*
X412Y192D01*
X414Y192D01*
X414Y190D01*
X416Y190D01*
X416Y186D01*
X418Y186D01*
X418Y184D01*
X420Y184D01*
X420Y176D01*
X422Y176D01*
X422Y172D01*
X548Y172D01*
X548Y94D01*
X600Y94D01*
X600Y98D01*
X602Y98D01*
X602Y100D01*
X604Y100D01*
X604Y102D01*
X606Y102D01*
X606Y106D01*
X608Y106D01*
X608Y108D01*
X612Y108D01*
X612Y110D01*
X614Y110D01*
X614Y112D01*
X616Y112D01*
X616Y132D01*
X614Y132D01*
X614Y134D01*
X610Y134D01*
X610Y136D01*
X608Y136D01*
X608Y138D01*
X606Y138D01*
X606Y140D01*
X604Y140D01*
X604Y142D01*
X602Y142D01*
X602Y146D01*
X600Y146D01*
X600Y150D01*
X598Y150D01*
X598Y154D01*
X596Y154D01*
X596Y160D01*
X594Y160D01*
X594Y178D01*
X590Y178D01*
X590Y180D01*
X588Y180D01*
X588Y182D01*
X584Y182D01*
X584Y184D01*
X582Y184D01*
X582Y186D01*
X578Y186D01*
X578Y188D01*
X574Y188D01*
X574Y190D01*
X572Y190D01*
X572Y192D01*
X568Y192D01*
X568Y194D01*
X566Y194D01*
X566Y196D01*
X484Y196D01*
X484Y274D01*
X424Y274D01*
G37*
D02*
G36*
X424Y172D02*
X424Y170D01*
X426Y170D01*
X426Y168D01*
X484Y168D01*
X484Y172D01*
X424Y172D01*
G37*
D02*
G36*
X426Y124D02*
X426Y104D01*
X428Y104D01*
X428Y102D01*
X430Y102D01*
X430Y98D01*
X432Y98D01*
X432Y96D01*
X434Y96D01*
X434Y92D01*
X436Y92D01*
X436Y86D01*
X438Y86D01*
X438Y78D01*
X440Y78D01*
X440Y66D01*
X438Y66D01*
X438Y40D01*
X484Y40D01*
X484Y124D01*
X426Y124D01*
G37*
D02*
G36*
X368Y56D02*
X411Y56D01*
X411Y30D01*
X368Y30D01*
X368Y56D01*
G37*
D02*
G36*
X340Y94D02*
X372Y94D01*
X372Y51D01*
X340Y51D01*
X340Y94D01*
G37*
D02*
G36*
X303Y166D02*
X328Y166D01*
X328Y142D01*
X303Y142D01*
X303Y166D01*
G37*
D02*
G36*
X284Y185D02*
X308Y185D01*
X308Y160D01*
X284Y160D01*
X284Y185D01*
G37*
D02*
G36*
X301Y456D02*
X330Y456D01*
X330Y424D01*
X301Y424D01*
X301Y456D01*
G37*
D02*
G36*
X120Y468D02*
X163Y468D01*
X163Y440D01*
X120Y440D01*
X120Y468D01*
G37*
D02*
G36*
X90Y444D02*
X124Y444D01*
X124Y401D01*
X90Y401D01*
X90Y444D01*
G37*
D02*
G04 End of Copper0*
M02*