G04 MADE WITH FRITZING*
G04 WWW.FRITZING.ORG*
G04 DOUBLE SIDED*
G04 HOLES PLATED*
G04 CONTOUR ON CENTER OF CONTOUR VECTOR*
%ASAXBY*%
%FSLAX23Y23*%
%MOIN*%
%OFA0B0*%
%SFA1.0B1.0*%
%ADD10C,0.039370*%
%ADD11C,0.075433*%
%ADD12R,0.087000X0.024000*%
%ADD13R,0.047244X0.043307*%
%ADD14C,0.024000*%
%LNCOPPER1*%
G90*
G70*
G54D10*
X313Y62D03*
X239Y137D03*
X588Y187D03*
G54D11*
X64Y62D03*
X64Y162D03*
X64Y262D03*
X588Y411D03*
X588Y62D03*
X488Y411D03*
X388Y411D03*
X64Y411D03*
G54D10*
X264Y287D03*
X264Y212D03*
G54D12*
X164Y312D03*
X164Y262D03*
X164Y212D03*
X164Y162D03*
X429Y162D03*
X429Y212D03*
X429Y262D03*
X429Y312D03*
G54D13*
X164Y62D03*
X231Y62D03*
X189Y411D03*
X256Y411D03*
G54D14*
X559Y62D02*
X332Y62D01*
D02*
X488Y361D02*
X488Y382D01*
D02*
X513Y337D02*
X488Y361D01*
D02*
X513Y287D02*
X513Y337D01*
D02*
X488Y262D02*
X513Y287D01*
D02*
X467Y262D02*
X488Y262D01*
D02*
X588Y206D02*
X588Y382D01*
D02*
X93Y262D02*
X126Y262D01*
D02*
X114Y212D02*
X126Y212D01*
D02*
X85Y182D02*
X114Y212D01*
D02*
X274Y411D02*
X359Y411D01*
D02*
X413Y311D02*
X429Y312D01*
D02*
X388Y337D02*
X413Y311D01*
D02*
X388Y382D02*
X388Y337D01*
D02*
X146Y62D02*
X93Y62D01*
D02*
X202Y162D02*
X214Y162D01*
D02*
X239Y118D02*
X239Y62D01*
D02*
X239Y62D02*
X231Y62D01*
D02*
X214Y162D02*
X225Y150D01*
D02*
X388Y212D02*
X391Y212D01*
D02*
X314Y287D02*
X388Y212D01*
D02*
X283Y287D02*
X314Y287D01*
D02*
X314Y212D02*
X363Y162D01*
D02*
X363Y162D02*
X391Y162D01*
D02*
X283Y212D02*
X314Y212D01*
D02*
X173Y395D02*
X164Y386D01*
D02*
X164Y386D02*
X164Y318D01*
G36*
X112Y432D02*
X112Y402D01*
X110Y402D01*
X110Y394D01*
X108Y394D01*
X108Y390D01*
X106Y390D01*
X106Y386D01*
X104Y386D01*
X104Y384D01*
X102Y384D01*
X102Y380D01*
X100Y380D01*
X100Y378D01*
X98Y378D01*
X98Y376D01*
X96Y376D01*
X96Y374D01*
X94Y374D01*
X94Y372D01*
X90Y372D01*
X90Y370D01*
X86Y370D01*
X86Y368D01*
X84Y368D01*
X84Y366D01*
X76Y366D01*
X76Y364D01*
X40Y364D01*
X40Y308D01*
X76Y308D01*
X76Y306D01*
X84Y306D01*
X84Y304D01*
X86Y304D01*
X86Y302D01*
X90Y302D01*
X90Y300D01*
X110Y300D01*
X110Y334D01*
X142Y334D01*
X142Y392D01*
X144Y392D01*
X144Y398D01*
X146Y398D01*
X146Y400D01*
X148Y400D01*
X148Y402D01*
X150Y402D01*
X150Y404D01*
X152Y404D01*
X152Y406D01*
X154Y406D01*
X154Y408D01*
X156Y408D01*
X156Y432D01*
X112Y432D01*
G37*
D02*
G36*
X290Y388D02*
X290Y380D01*
X188Y380D01*
X188Y378D01*
X186Y378D01*
X186Y334D01*
X218Y334D01*
X218Y316D01*
X270Y316D01*
X270Y314D01*
X276Y314D01*
X276Y312D01*
X280Y312D01*
X280Y310D01*
X282Y310D01*
X282Y308D01*
X320Y308D01*
X320Y306D01*
X324Y306D01*
X324Y304D01*
X328Y304D01*
X328Y302D01*
X330Y302D01*
X330Y300D01*
X332Y300D01*
X332Y298D01*
X334Y298D01*
X334Y296D01*
X336Y296D01*
X336Y294D01*
X338Y294D01*
X338Y292D01*
X340Y292D01*
X340Y290D01*
X342Y290D01*
X342Y288D01*
X344Y288D01*
X344Y286D01*
X346Y286D01*
X346Y284D01*
X348Y284D01*
X348Y282D01*
X350Y282D01*
X350Y280D01*
X352Y280D01*
X352Y278D01*
X354Y278D01*
X354Y276D01*
X356Y276D01*
X356Y274D01*
X376Y274D01*
X376Y318D01*
X374Y318D01*
X374Y320D01*
X372Y320D01*
X372Y322D01*
X370Y322D01*
X370Y326D01*
X368Y326D01*
X368Y332D01*
X366Y332D01*
X366Y370D01*
X362Y370D01*
X362Y372D01*
X360Y372D01*
X360Y374D01*
X356Y374D01*
X356Y376D01*
X354Y376D01*
X354Y378D01*
X352Y378D01*
X352Y382D01*
X350Y382D01*
X350Y384D01*
X348Y384D01*
X348Y388D01*
X290Y388D01*
G37*
D02*
G36*
X218Y316D02*
X218Y300D01*
X238Y300D01*
X238Y302D01*
X240Y302D01*
X240Y306D01*
X242Y306D01*
X242Y308D01*
X244Y308D01*
X244Y310D01*
X248Y310D01*
X248Y312D01*
X252Y312D01*
X252Y314D01*
X258Y314D01*
X258Y316D01*
X218Y316D01*
G37*
D02*
G36*
X428Y386D02*
X428Y384D01*
X426Y384D01*
X426Y380D01*
X424Y380D01*
X424Y378D01*
X422Y378D01*
X422Y376D01*
X420Y376D01*
X420Y374D01*
X416Y374D01*
X416Y372D01*
X414Y372D01*
X414Y370D01*
X410Y370D01*
X410Y344D01*
X412Y344D01*
X412Y342D01*
X414Y342D01*
X414Y340D01*
X416Y340D01*
X416Y338D01*
X418Y338D01*
X418Y336D01*
X420Y336D01*
X420Y334D01*
X468Y334D01*
X468Y354D01*
X466Y354D01*
X466Y370D01*
X462Y370D01*
X462Y372D01*
X460Y372D01*
X460Y374D01*
X456Y374D01*
X456Y376D01*
X454Y376D01*
X454Y378D01*
X452Y378D01*
X452Y380D01*
X450Y380D01*
X450Y384D01*
X448Y384D01*
X448Y386D01*
X428Y386D01*
G37*
D02*
G36*
X528Y386D02*
X528Y384D01*
X526Y384D01*
X526Y382D01*
X524Y382D01*
X524Y378D01*
X522Y378D01*
X522Y356D01*
X524Y356D01*
X524Y354D01*
X526Y354D01*
X526Y352D01*
X528Y352D01*
X528Y350D01*
X530Y350D01*
X530Y348D01*
X532Y348D01*
X532Y344D01*
X534Y344D01*
X534Y278D01*
X532Y278D01*
X532Y274D01*
X530Y274D01*
X530Y272D01*
X528Y272D01*
X528Y270D01*
X526Y270D01*
X526Y268D01*
X524Y268D01*
X524Y266D01*
X522Y266D01*
X522Y264D01*
X520Y264D01*
X520Y262D01*
X518Y262D01*
X518Y260D01*
X516Y260D01*
X516Y258D01*
X514Y258D01*
X514Y256D01*
X512Y256D01*
X512Y254D01*
X510Y254D01*
X510Y252D01*
X508Y252D01*
X508Y250D01*
X506Y250D01*
X506Y248D01*
X504Y248D01*
X504Y246D01*
X502Y246D01*
X502Y244D01*
X500Y244D01*
X500Y242D01*
X496Y242D01*
X496Y240D01*
X482Y240D01*
X482Y140D01*
X608Y140D01*
X608Y156D01*
X586Y156D01*
X586Y158D01*
X576Y158D01*
X576Y160D01*
X572Y160D01*
X572Y162D01*
X570Y162D01*
X570Y164D01*
X568Y164D01*
X568Y166D01*
X566Y166D01*
X566Y168D01*
X564Y168D01*
X564Y170D01*
X562Y170D01*
X562Y174D01*
X560Y174D01*
X560Y178D01*
X558Y178D01*
X558Y194D01*
X560Y194D01*
X560Y200D01*
X562Y200D01*
X562Y202D01*
X564Y202D01*
X564Y206D01*
X566Y206D01*
X566Y368D01*
X564Y368D01*
X564Y370D01*
X562Y370D01*
X562Y372D01*
X558Y372D01*
X558Y374D01*
X556Y374D01*
X556Y376D01*
X554Y376D01*
X554Y378D01*
X552Y378D01*
X552Y380D01*
X550Y380D01*
X550Y382D01*
X548Y382D01*
X548Y386D01*
X528Y386D01*
G37*
D02*
G36*
X218Y198D02*
X218Y182D01*
X256Y182D01*
X256Y184D01*
X250Y184D01*
X250Y186D01*
X246Y186D01*
X246Y188D01*
X244Y188D01*
X244Y190D01*
X242Y190D01*
X242Y192D01*
X240Y192D01*
X240Y194D01*
X238Y194D01*
X238Y198D01*
X218Y198D01*
G37*
D02*
G36*
X282Y190D02*
X282Y188D01*
X280Y188D01*
X280Y186D01*
X276Y186D01*
X276Y184D01*
X272Y184D01*
X272Y182D01*
X310Y182D01*
X310Y184D01*
X308Y184D01*
X308Y186D01*
X306Y186D01*
X306Y188D01*
X304Y188D01*
X304Y190D01*
X282Y190D01*
G37*
D02*
G36*
X224Y182D02*
X224Y180D01*
X312Y180D01*
X312Y182D01*
X224Y182D01*
G37*
D02*
G36*
X224Y182D02*
X224Y180D01*
X312Y180D01*
X312Y182D01*
X224Y182D01*
G37*
D02*
G36*
X226Y180D02*
X226Y178D01*
X230Y178D01*
X230Y176D01*
X232Y176D01*
X232Y174D01*
X234Y174D01*
X234Y172D01*
X236Y172D01*
X236Y170D01*
X238Y170D01*
X238Y168D01*
X240Y168D01*
X240Y166D01*
X246Y166D01*
X246Y164D01*
X252Y164D01*
X252Y162D01*
X256Y162D01*
X256Y160D01*
X258Y160D01*
X258Y158D01*
X260Y158D01*
X260Y156D01*
X262Y156D01*
X262Y154D01*
X264Y154D01*
X264Y150D01*
X266Y150D01*
X266Y144D01*
X268Y144D01*
X268Y140D01*
X356Y140D01*
X356Y142D01*
X352Y142D01*
X352Y144D01*
X348Y144D01*
X348Y146D01*
X346Y146D01*
X346Y148D01*
X344Y148D01*
X344Y150D01*
X342Y150D01*
X342Y152D01*
X340Y152D01*
X340Y154D01*
X338Y154D01*
X338Y156D01*
X336Y156D01*
X336Y158D01*
X334Y158D01*
X334Y160D01*
X332Y160D01*
X332Y162D01*
X330Y162D01*
X330Y164D01*
X328Y164D01*
X328Y166D01*
X326Y166D01*
X326Y168D01*
X324Y168D01*
X324Y170D01*
X322Y170D01*
X322Y172D01*
X320Y172D01*
X320Y174D01*
X318Y174D01*
X318Y176D01*
X316Y176D01*
X316Y178D01*
X314Y178D01*
X314Y180D01*
X226Y180D01*
G37*
D02*
G36*
X268Y140D02*
X268Y138D01*
X608Y138D01*
X608Y140D01*
X268Y140D01*
G37*
D02*
G36*
X268Y140D02*
X268Y138D01*
X608Y138D01*
X608Y140D01*
X268Y140D01*
G37*
D02*
G36*
X268Y138D02*
X268Y128D01*
X266Y128D01*
X266Y124D01*
X264Y124D01*
X264Y120D01*
X262Y120D01*
X262Y118D01*
X260Y118D01*
X260Y94D01*
X264Y94D01*
X264Y92D01*
X318Y92D01*
X318Y90D01*
X326Y90D01*
X326Y88D01*
X328Y88D01*
X328Y86D01*
X332Y86D01*
X332Y84D01*
X546Y84D01*
X546Y86D01*
X548Y86D01*
X548Y90D01*
X550Y90D01*
X550Y92D01*
X552Y92D01*
X552Y94D01*
X554Y94D01*
X554Y96D01*
X556Y96D01*
X556Y98D01*
X558Y98D01*
X558Y100D01*
X560Y100D01*
X560Y102D01*
X564Y102D01*
X564Y104D01*
X568Y104D01*
X568Y106D01*
X572Y106D01*
X572Y108D01*
X582Y108D01*
X582Y110D01*
X608Y110D01*
X608Y138D01*
X268Y138D01*
G37*
D02*
G36*
X264Y92D02*
X264Y40D01*
X284Y40D01*
X284Y70D01*
X286Y70D01*
X286Y76D01*
X288Y76D01*
X288Y78D01*
X290Y78D01*
X290Y82D01*
X292Y82D01*
X292Y84D01*
X296Y84D01*
X296Y86D01*
X298Y86D01*
X298Y88D01*
X302Y88D01*
X302Y90D01*
X308Y90D01*
X308Y92D01*
X264Y92D01*
G37*
D02*
G36*
X106Y140D02*
X106Y138D01*
X104Y138D01*
X104Y134D01*
X102Y134D01*
X102Y132D01*
X100Y132D01*
X100Y130D01*
X98Y130D01*
X98Y128D01*
X96Y128D01*
X96Y126D01*
X94Y126D01*
X94Y124D01*
X92Y124D01*
X92Y122D01*
X88Y122D01*
X88Y102D01*
X92Y102D01*
X92Y100D01*
X94Y100D01*
X94Y98D01*
X96Y98D01*
X96Y96D01*
X98Y96D01*
X98Y94D01*
X100Y94D01*
X100Y92D01*
X102Y92D01*
X102Y90D01*
X104Y90D01*
X104Y86D01*
X106Y86D01*
X106Y84D01*
X130Y84D01*
X130Y94D01*
X216Y94D01*
X216Y118D01*
X214Y118D01*
X214Y122D01*
X212Y122D01*
X212Y126D01*
X210Y126D01*
X210Y136D01*
X208Y136D01*
X208Y138D01*
X206Y138D01*
X206Y140D01*
X106Y140D01*
G37*
D02*
G04 End of Copper1*
M02*